<?xml version="1.0" encoding="UTF-8"?>
<svg width="100px" height="100px" viewBox="0 0 100 100" version="1.1" xmlns="http://www.w3.org/2000/svg" xmlns:xlink="http://www.w3.org/1999/xlink">
    <title>img-8</title>
    <g id="页面-1" stroke="none" stroke-width="1" fill="none" fill-rule="evenodd">
        <g id="4---选择朝代---秦" transform="translate(-933.000000, -278.000000)">
            <g id="编组-12" transform="translate(563.000000, 237.000000)">
                <g id="编组-10备份" transform="translate(285.000000, 0.000000)">
                    <g id="img-8" transform="translate(85.000000, 41.000000)">
                        <g id="椭圆形" stroke="#8C9C9F" stroke-width="2">
                            <circle cx="50" cy="50" r="49"></circle>
                        </g>
                        <path d="M50,26 C63.254834,26 74,36.7451659 74,50 C74,58.5743739 69.4256261,66.4974225 62,70.7846096 C54.5743742,75.0717968 45.4256258,75.0717968 38,70.7846096 C30.5743739,66.4974225 26,58.5743739 26,50 C26,36.7451659 36.745166,26 50,26 Z M50.1999652,40 C49.8716408,40 49.5568009,40.1306005 49.3248786,40.3629996 L49.3248786,40.3629996 L40.3629984,49.3249104 C40.1306001,49.5568335 40,49.8716745 40,50.2 C40,50.5283256 40.1306001,50.8431666 40.3629984,51.0750897 L40.3629984,51.0750897 L49.3248786,60.0370004 C49.5568009,60.2693995 49.8716408,60.4 50.1999652,60.4 C50.5282896,60.4 50.8431296,60.2693995 51.0750519,60.0370004 L51.0750519,60.0370004 L60.0369321,51.0750897 C60.5210226,50.5909975 60.5210226,49.8090025 60.0369321,49.3249104 L60.0369321,49.3249104 L51.0750519,40.3629996 C50.8431296,40.1306005 50.5282896,40 50.1999652,40 Z" id="形状结合" fill="#476065" fill-rule="nonzero"></path>
                    </g>
                </g>
            </g>
        </g>
    </g>
</svg>