<?xml version="1.0" encoding="UTF-8"?>
<svg width="100px" height="100px" viewBox="0 0 100 100" version="1.1" xmlns="http://www.w3.org/2000/svg" xmlns:xlink="http://www.w3.org/1999/xlink">
    <title>img-7</title>
    <g id="页面-1" stroke="none" stroke-width="1" fill="none" fill-rule="evenodd">
        <g id="5---选择朝代---弹层" transform="translate(-910.000000, -301.000000)">
            <g id="img-7" transform="translate(910.000000, 301.000000)">
                <circle id="椭圆形" stroke="#8C9C9F" stroke-width="2" cx="50" cy="50" r="49"></circle>
                <path d="M46.5437043,27.0772221 C47.2806531,28.2842289 47.8974959,29.5708992 47.9197259,30.9789381 C47.9891347,35.4071822 47.9453144,39.8372184 47.9453144,44.2670916 C46.8480475,44.8794737 45.759097,44.5709204 44.7186046,44.5950312 C42.5314277,44.6456965 42.5296685,44.6121369 42.7558068,46.8216974 C42.7921105,47.1774948 42.8424879,47.5316631 42.8925454,47.9381258 C44.0377906,48.3102143 45.1715211,48.1189569 46.2815821,48.1288945 C49.501415,48.1582185 52.7228471,48.0842569 55.9414005,48.1569152 C57.324139,48.1882158 57.3257105,47.428925 57.310402,46.6618311 L57.3068335,46.4530183 C57.3048964,46.2451883 57.3109289,46.042071 57.3526062,45.8595457 C57.6304013,44.6424383 56.8285217,44.6328266 55.9809027,44.6054575 C52.2252956,44.483966 52.0820937,44.4694254 52.074639,40.8356979 L52.0741786,40.3912784 C52.0725793,37.7185621 52.0751382,35.0458459 52.0823349,32.3731296 C52.0839342,31.8268894 52.0720995,31.2755989 52.13783,30.7355493 C52.658396,26.4469198 54.2656736,25.3866956 58.1564049,26.9069802 C61.4099826,28.1781739 64.3683329,29.966284 66.7269528,32.4159752 C66.7590984,32.9368013 66.5438351,33.0640348 66.3244137,33.1389738 C61.7906115,34.6863015 59.713625,38.2258667 59.019377,42.745178 C58.3807841,46.9023383 58.4289224,51.1140739 58.8001156,55.2888286 C59.3780958,61.7897881 61.0611793,64.165192 66.8664101,67.1888183 C65.9818477,68.4204247 64.8872997,69.3540671 63.6732853,70.1849127 C61.2782018,71.8237963 58.6820886,72.972644 55.9177311,73.8080511 C54.7043565,74.1746006 54.020024,73.8292295 53.4354868,72.787903 C52.6839845,71.4491012 52.097848,70.0713638 52.0938498,68.502043 C52.0842541,64.6145002 52.113361,60.7266316 52.0645829,56.8395775 C52.050989,55.7583378 52.3658875,55.3121249 53.4820258,55.3341178 C54.7163511,55.3583916 55.973546,55.5224428 57.3994651,55.138136 C57.353086,54.280573 57.3057472,53.5634392 57.2782396,52.845328 C57.2534508,52.2006896 57.0009243,51.830556 56.3074759,51.8320222 C51.9051346,51.8406565 47.5026333,51.8362579 43.0502345,51.8362579 C42.7601729,52.6476356 42.6994066,53.4070464 42.6667262,54.1542198 L42.6408998,54.7925839 C42.6361774,54.8987873 42.630855,55.0049726 42.6243459,55.1112557 C44.404186,55.6547265 46.1032623,55.0855158 47.9609873,55.5672433 C47.9609873,59.1141395 47.9152479,62.6783042 47.9769801,66.2405139 C48.0187214,68.6509436 47.8723871,70.9750305 46.4533449,73.0345501 C46.0220188,73.6604538 45.643309,74.1780217 44.7321985,73.941638 C40.2977116,72.7906725 36.3481268,70.7959914 33.1521233,67.3422803 C33.7128313,66.5503705 34.5729247,66.571223 35.2335877,66.21119 C38.4249534,64.472279 40.1977566,61.6488702 40.8168383,58.1585041 C41.7768868,52.74302 41.816549,47.2599278 40.8206766,41.8525891 C40.016558,37.4854366 37.7877997,34.1084565 32.8908007,32.9384305 C34.4190738,31.0861335 36.0591367,29.9395666 37.7554943,28.8698936 C39.7483585,27.6135247 41.9264196,26.8056496 44.1655732,26.1256595 C45.2698769,25.7902259 45.9670035,26.1326647 46.5437043,27.0772221 Z M32.3418315,36.6756554 C34.4215367,37.1124195 35.5714199,38.6092449 36.4136014,40.4369423 C37.6455277,43.1099843 37.589233,46.0024674 37.6592815,48.842656 C37.7371665,51.9933529 37.7829059,55.1732107 36.8647586,58.2393568 C36.1983381,60.464231 35.1026706,62.376642 32.7469294,63.1512834 C31.8698836,63.4397986 30.9466186,63.6256799 30.2694829,62.7791949 C29.5525251,61.883022 29.8965305,60.9462843 30.3787138,60.0611894 C31.0358584,58.8543455 32.082588,57.8192096 33.1873714,57.3399257 C34.7249204,56.6729359 34.8208403,55.6132787 34.8784589,54.395071 L34.8942779,54.0590774 C34.9112558,53.7195046 34.934874,53.3697219 34.9935996,53.0144784 C31.6293517,53.5035369 29.4871145,55.4449461 27.3106528,57.7281424 C25.3604893,52.4128484 25.8453913,47.3314945 27.087713,41.9557606 C29.4257021,43.9198144 31.4304011,46.4907114 34.8029653,46.880883 C35.0247856,44.9673315 35.0071935,43.3905169 33.0084119,42.410282 C31.7919986,41.8138652 30.778854,40.7771002 30.1687282,39.4653417 C29.8212044,38.7180694 29.7121334,37.9330017 30.224863,37.2178229 C30.7657399,36.4632196 31.5577039,36.5109525 32.3418315,36.6756554 Z M69.9408523,39.2868402 C69.3879808,40.7009068 68.244015,41.6022928 67.0599072,42.4290656 C65.0799971,43.8112017 64.9654885,44.0570343 65.3166907,46.9302938 C67.9126717,46.407279 69.8876842,44.8468082 71.8035731,43.1864725 L72.3771279,42.6863135 C72.4726121,42.6027669 72.5680889,42.519205 72.6636285,42.435745 C74.4249169,45.8738166 74.4458675,50.6594873 72.722642,57.1749458 C70.1871416,55.9562094 68.3949871,53.3480059 65.2994184,53.0821353 C64.9869189,54.9495829 65.0072298,56.5136905 66.9730662,57.5196653 C68.1298263,58.1116835 69.1193016,59.048747 69.7673303,60.2614558 C70.186182,61.0452201 70.4236753,61.8671056 69.8464947,62.6551056 C69.2032638,63.5333583 68.2540904,63.4779686 67.4048721,63.151821 C65.5519449,62.4403891 64.2109477,61.1193446 63.5082235,59.2116579 C62.1126907,55.4225133 62.3132406,51.4601944 62.4114365,47.5281768 C62.4717294,45.1100903 62.5863978,42.6688705 63.6315281,40.4128803 C64.506175,38.5250688 65.705316,36.9922402 67.8804983,36.6424704 C69.6961623,36.3505341 70.6248649,37.5378288 69.9408523,39.2868402 Z" id="形状结合" fill="#476065"></path>
            </g>
        </g>
    </g>
</svg>