<?xml version="1.0" encoding="UTF-8"?>
<svg width="270px" height="339px" viewBox="0 0 270 339" version="1.1" xmlns="http://www.w3.org/2000/svg" xmlns:xlink="http://www.w3.org/1999/xlink">
    <title>池背景</title>
    <g id="页面-1" stroke="none" stroke-width="1" fill="none" fill-rule="evenodd">
        <g id="3---选择朝代" transform="translate(-420.000000, -157.000000)" fill="#8C9C9F">
            <g id="编组-10" transform="translate(420.000000, 157.000000)">
                <path d="M270,314.430446 L259.494031,314.430446 L259.494031,324.063934 L262.88162,324.063934 L262.88162,317.966745 L269.737732,317.966745 L269.737732,325.817529 L264.619647,325.817529 L264.619647,331.016001 L269.737732,331.016001 L269.737732,339 L262.88162,339 L262.88162,332.769654 L257.840183,332.769654 L257.840183,339 L250.53566,339 L250.53566,331.016001 L256.102155,331.016001 L256.102155,327.83235 L247.2673,327.83235 L247.2673,339 L22.7327001,339 L22.7327001,327.83235 L13.8978446,327.83235 L13.8978446,331.016001 L19.46434,331.016001 L19.46434,339 L12.1598174,339 L12.1598174,332.769654 L7.11837993,332.769654 L7.11837993,339 L0.262268299,339 L0.262268299,331.016001 L5.38035276,331.016001 L5.38035276,325.817529 L0.262268299,325.817529 L0.262268299,317.966745 L7.11837993,317.966745 L7.11837993,324.063934 L10.5059687,324.063934 L10.5059687,314.430446 L0,314.430446 L0,24.569554 L10.5059687,24.569554 L10.5059687,14.9360657 L7.11837993,14.9360657 L7.11837993,21.0332553 L0.262268299,21.0332553 L0.262268299,13.1824712 L5.38035276,13.1824712 L5.38035276,7.98399882 L0.262268299,7.98399882 L0.262268299,0 L7.11837993,0 L7.11837993,6.23034588 L12.1598174,6.23034588 L12.1598174,0 L19.46434,0 L19.46434,7.98399882 L13.8978446,7.98399882 L13.8978446,11.1676496 L22.7327001,11.1676496 L22.7327001,0 L247.2673,0 L247.2673,11.1676496 L256.102155,11.1676496 L256.102155,7.98399882 L250.53566,7.98399882 L250.53566,0 L257.840183,0 L257.840183,6.23034588 L262.88162,6.23034588 L262.88162,0 L269.737732,0 L269.737732,7.98399882 L264.619647,7.98399882 L264.619647,13.1824712 L269.737732,13.1824712 L269.737732,21.0332553 L262.88162,21.0332553 L262.88162,14.9360657 L259.494031,14.9360657 L259.494031,24.569554 L270,24.569554 L270,314.430446 Z M1.73796923,312.67691 L12.2439958,312.67691 L12.2439958,325.817529 L7.11837993,325.817529 L7.11837993,331.016001 L12.1598174,331.016001 L12.1598174,326.078756 L24.4707852,326.078756 L24.4707852,337.246347 L245.529215,337.246347 L245.529215,326.078756 L257.840183,326.078756 L257.840183,331.016001 L262.88162,331.016001 L262.88162,325.817529 L257.756004,325.817529 L257.756004,312.67691 L268.262031,312.67691 L268.262031,26.32309 L257.756004,26.32309 L257.756004,13.1824712 L262.88162,13.1824712 L262.88162,7.98399882 L257.840183,7.98399882 L257.840183,12.9212441 L245.529215,12.9212441 L245.529215,1.75365295 L24.4707852,1.75365295 L24.4707852,12.9212441 L12.1598174,12.9212441 L12.1598174,7.98399882 L7.11837993,7.98399882 L7.11837993,13.1824712 L12.2439958,13.1824712 L12.2439958,26.32309 L1.73796923,26.32309 L1.73796923,312.67691 Z M5,333 L2,333 L2,337 L5,337 L5,333 Z M18,333 L14,333 L14,337 L18,337 L18,333 Z M268,333 L265,333 L265,337 L268,337 L268,333 Z M256,333 L252,333 L252,337 L256,337 L256,333 Z M5,320 L2,320 L2,324 L5,324 L5,320 Z M268,320 L265,320 L265,324 L268,324 L268,320 Z M268,15 L265,15 L265,19 L268,19 L268,15 Z M5,15 L2,15 L2,19 L5,19 L5,15 Z M268,2 L265,2 L265,6 L268,6 L268,2 Z M256,2 L252,2 L252,6 L256,6 L256,2 Z M5,2 L2,2 L2,6 L5,6 L5,2 Z M18,2 L14,2 L14,6 L18,6 L18,2 Z" id="池背景"></path>
            </g>
        </g>
    </g>
</svg>