<?xml version="1.0" encoding="UTF-8"?>
<svg width="237px" height="64px" viewBox="0 0 237 64" version="1.1" xmlns="http://www.w3.org/2000/svg" xmlns:xlink="http://www.w3.org/1999/xlink">
    <title>确认</title>
    <g id="页面-1" stroke="none" stroke-width="1" fill="none" fill-rule="evenodd">
        <g id="6---选择朝代---弹层---确认" transform="translate(-969.000000, -542.000000)">
            <g id="编组-4" transform="translate(685.000000, 316.000000)">
                <g id="确认" transform="translate(285.000000, 227.000000)">
                    <path d="M232,7 C229.791,7 228,5.209 228,3 L7,3 C7,5.209 5.209,7 3,7 L3,55 C5.209,55 7,56.791 7,59 L228,59 C228,56.791 229.791,55 232,55 L232,7 Z" id="Fill-1" fill="#476065"></path>
                    <path d="M235,4 C232.791,4 231,2.209 231,0 L4,0 C4,2.209 2.209,4 0,4 L0,58 C2.209,58 4,59.791 4,62 L231,62 C231,59.791 232.791,58 235,58 L235,4 Z" id="Fill-1备份-2" stroke="#8C9C9F"></path>
                </g>
            </g>
        </g>
    </g>
</svg>