<?xml version="1.0" encoding="UTF-8"?>
<svg width="690px" height="39px" viewBox="0 0 690 39" version="1.1" xmlns="http://www.w3.org/2000/svg" xmlns:xlink="http://www.w3.org/1999/xlink">
    <title>h5-mune-top-bg</title>
    <g id="WEB+H5" stroke="none" stroke-width="1" fill="none" fill-rule="evenodd">
        <g id="8---H5---EN---菜单" transform="translate(-30.000000, -150.000000)" fill="#648086">
            <g id="h5-mune-top-bg" transform="translate(30.000000, 150.000000)">
                <path d="M7.11837993,0 L7.11837993,6.23034588 L12.1598174,6.23034588 L12.1598174,0 L19.46434,0 L19.46434,7.98399882 L13.8978446,7.98399882 L13.8978446,11.1676496 L22.7327001,11.1676496 L22.7327001,0 L40,0 L40,1.75365295 L24.4707852,1.75365295 L24.4707852,12.9212441 L12.1598174,12.9212441 L12.1598174,7.98399882 L7.11837993,7.98399882 L7.11837993,13.1824712 L12.2439958,13.1824712 L12.2439958,26.32309 L1.73796923,26.32309 L1.73796923,39 L0,39 L0,24.569554 L10.5059687,24.569554 L10.5059687,14.9360657 L7.11837993,14.9360657 L7.11837993,21.0332553 L0.262268299,21.0332553 L0.262268299,13.1824712 L5.38035276,13.1824712 L5.38035276,7.98399882 L0.262268299,7.98399882 L0.262268299,0 L7.11837993,0 Z M667.2673,0 L667.2673,11.1676496 L676.102155,11.1676496 L676.102155,7.98399882 L670.53566,7.98399882 L670.53566,0 L677.840183,0 L677.840183,6.23034588 L682.88162,6.23034588 L682.88162,0 L689.737732,0 L689.737732,7.98399882 L684.619647,7.98399882 L684.619647,13.1824712 L689.737732,13.1824712 L689.737732,21.0332553 L682.88162,21.0332553 L682.88162,14.9360657 L679.494031,14.9360657 L679.494031,24.569554 L690,24.569554 L690,39 L688.262031,39 L688.262031,26.32309 L677.756004,26.32309 L677.756004,13.1824712 L682.88162,13.1824712 L682.88162,7.98399882 L677.840183,7.98399882 L677.840183,12.9212441 L665.529215,12.9212441 L665.529215,1.75365295 L650,1.75365295 L650,0 L667.2673,0 Z M5,15 L2,15 L2,19 L5,19 L5,15 Z M688,15 L685,15 L685,19 L688,19 L688,15 Z M18,2 L14,2 L14,6 L18,6 L18,2 Z M5,2 L2,2 L2,6 L5,6 L5,2 Z M676,2 L672,2 L672,6 L676,6 L676,2 Z M688,2 L685,2 L685,6 L688,6 L688,2 Z" id="形状结合"></path>
            </g>
        </g>
    </g>
</svg>