<?xml version="1.0" encoding="UTF-8"?>
<svg width="268px" height="263px" viewBox="0 0 268 263" version="1.1" xmlns="http://www.w3.org/2000/svg" xmlns:xlink="http://www.w3.org/1999/xlink">
    <title>形状结合</title>
    <g id="控件" stroke="none" stroke-width="1" fill="none" fill-rule="evenodd" opacity="0.251302083">
        <path d="M114.350409,5.9022792 C118.471609,12.515671 121.921146,19.565552 122.045462,27.2804319 C122.433613,51.5435194 122.188559,75.8164257 122.188559,100.088439 C116.052372,103.443783 109.962691,101.753168 104.144001,101.885275 C91.9127672,102.162879 91.9029293,101.979 93.1675508,114.085551 C93.37057,116.035024 93.6522926,117.975571 93.9322265,120.202648 C98.6839482,121.715258 103.400223,121.528756 108.053291,121.353999 L109.265683,121.309801 C110.476604,121.26812 111.68306,121.237363 112.884557,121.247901 C130.890658,121.408572 148.905702,121.003324 166.904647,121.401431 C174.614586,121.572429 174.645933,117.437015 174.561193,113.246592 L174.553607,112.876814 C174.542353,112.322258 174.532962,111.768928 174.542968,111.226682 L174.552704,110.866935 C174.578693,110.151158 174.646091,109.458978 174.796458,108.813761 C176.258575,102.537305 172.372322,102.121451 167.958209,101.969223 L167.334491,101.948977 C167.264913,101.946792 167.195261,101.944608 167.125554,101.942403 C145.299652,101.250625 145.290709,101.191713 145.278188,78.8522126 C145.269244,64.2079549 145.283554,49.5636972 145.3238,34.9194394 C145.332743,31.926498 145.266561,28.9058856 145.634142,25.9468636 C148.545276,2.44874798 157.533569,-3.3603968 179.291499,4.96949551 C197.486309,11.934578 214.030135,21.731931 227.22012,35.1541974 C227.399886,38.0078907 226.196081,38.7050238 224.969022,39.1156271 C199.61488,47.5936937 187.999859,66.9875611 184.117453,91.7496209 C180.546283,114.527395 180.815485,137.604196 182.891288,160.478373 C186.123497,196.098214 195.535715,209.113448 228,225.6804 C223.053308,232.428577 216.932325,237.544159 210.143257,242.096501 C196.749359,251.076217 182.231253,257.370945 166.772282,261.94828 C159.986792,263.956666 156.159836,262.06432 152.890959,256.358719 C148.688373,249.023201 145.410552,241.474347 145.388194,232.875778 C145.334532,211.575282 145.497305,190.273002 145.224526,168.975185 C145.148506,163.050893 146.909496,160.606017 153.151217,160.726521 C160.053869,160.85952 167.084413,161.758385 175.058505,159.652704 C174.799141,154.953973 174.534412,151.024678 174.380582,147.090026 C174.241957,143.557945 172.829766,141.529921 168.951832,141.537955 C144.332852,141.585264 119.712977,141.561163 94.8140631,141.561163 C93.1360324,146.160136 92.8302355,150.454398 92.6509984,154.684938 L92.6021555,155.892138 C92.5546043,157.098021 92.5077,158.300575 92.4323889,159.505422 C102.385694,162.483189 111.887349,159.364389 122.276206,162.003854 C122.276206,181.437889 122.02042,200.966542 122.365642,220.484483 C122.599069,233.691629 121.780732,246.425688 113.845097,257.710139 C111.433015,261.13957 109.315176,263.975411 104.220021,262.680225 C79.4212754,256.373893 57.3342214,245.444703 39.4613802,226.521244 C42.5969978,222.182238 47.4068527,222.296493 51.1014437,220.323812 C68.9483485,210.796029 78.8623019,195.326101 82.3243599,176.201804 C87.6931883,146.529463 87.914989,116.486688 82.3458245,86.858978 C77.8489948,62.9306214 65.385228,44.4275848 38,38.0168169 C46.5464807,27.8677732 55.7181173,21.5855419 65.2045678,15.7246254 C76.3491572,8.840771 88.5294126,4.41428837 101.051313,0.688509275 C107.226851,-1.14938702 111.125356,0.726891762 114.350409,5.9022792 Z M35.2409951,58.5512448 C46.7977328,60.9452573 53.1875317,69.1497284 57.8674594,79.1677912 C63.7849334,91.8327393 64.3535605,105.396426 64.6503811,118.896841 L64.6843534,120.484775 C64.6899085,120.749363 64.6954357,121.013912 64.7009731,121.278414 L64.734628,122.86482 C64.7518235,123.657688 64.7698009,124.450011 64.7895934,125.241593 C65.2223934,142.511344 65.4765634,159.940934 60.3745001,176.747241 C56.6712607,188.942328 50.5827333,199.424728 37.4920884,203.670729 C32.6184226,205.252153 27.4879207,206.271014 23.7251379,201.63122 C19.7410672,196.719074 21.6526746,191.584583 24.3321243,186.733158 C27.9838188,180.118147 33.8004021,174.44431 39.9395857,171.817236 C48.1712285,168.294965 48.9669431,162.774892 49.3004557,156.404601 L49.3301319,155.814192 C49.3397218,155.616607 49.3490772,155.41825 49.3584014,155.219155 L49.3864832,154.619689 C49.3912156,154.51942 49.3959909,154.418975 49.4008346,154.318358 L49.4309202,153.712626 C49.5248569,151.889438 49.6573967,150.013234 49.9766355,148.108387 C31.2818082,150.789038 19.3775863,161.430383 7.28318123,173.945148 C-3.55370432,144.810704 -0.859146593,116.958542 6.04432454,87.4928112 C9.29232417,90.1841778 12.4245698,93.0834354 15.5887672,95.9518443 L16.4526333,96.7331934 L16.4526333,96.7331934 L17.3187496,97.5119366 C26.2825378,105.541779 35.7133829,112.981868 48.9172975,114.488629 C50.1499333,103.999978 50.0521756,95.3570664 38.9451233,89.9841558 C32.1856226,86.7150474 26.5556677,81.0322814 23.1652529,73.8422072 C21.2340939,69.7462224 20.6279962,65.4430719 23.4771888,61.5229992 C26.4827938,57.3868314 30.8836677,57.6484672 35.2409951,58.5512448 Z M245.36949,72.7618087 C242.287128,80.5260388 235.909304,85.4752882 229.307681,90.0148582 C218.26931,97.603767 217.630904,98.9535623 219.588922,114.729798 C234.71987,111.727542 246.066921,102.499295 257.209319,92.9274962 L258.323009,91.9693891 C259.065192,91.330178 259.806994,90.6903115 260.549478,90.0515326 C270.368991,108.928988 270.485795,135.205719 260.87849,170.980214 C255.738166,168.546858 251.145848,165.104687 246.552844,161.638957 L245.568418,160.896299 C245.404279,160.772583 245.240089,160.648926 245.075822,160.525373 L244.089116,159.785673 C236.843658,154.375674 229.354555,149.341959 219.492626,148.507777 C217.750382,158.761391 217.863619,167.349452 228.823526,172.872968 C235.27268,176.123569 240.789191,181.268713 244.402072,187.927345 C246.73725,192.230768 248.061319,196.743504 244.843429,201.070183 C241.257296,205.892414 235.965476,205.588285 231.230925,203.797503 C220.900508,199.891237 213.424197,192.637764 209.506378,182.16321 C202.433326,163.249487 202.714374,143.549937 203.235243,123.90395 L203.287866,121.939561 C203.32313,120.630129 203.358405,119.321059 203.391585,118.0126 L203.431994,116.480139 C203.784579,103.706013 204.591135,90.8551345 210.193824,78.9445689 C215.070145,68.5791428 221.755581,60.1628247 233.88263,58.2423406 C244.005297,56.6394028 249.182989,63.1584937 245.36949,72.7618087 Z" id="形状结合" fill="#D0D0D0" style="mix-blend-mode: multiply;"></path>
    </g>
</svg>