<?xml version="1.0" encoding="UTF-8"?>
<svg width="50px" height="74px" viewBox="0 0 50 74" version="1.1" xmlns="http://www.w3.org/2000/svg" xmlns:xlink="http://www.w3.org/1999/xlink">
    <title>LOGO</title>
    <g id="页面-1" stroke="none" stroke-width="1" fill="none" fill-rule="evenodd">
        <g id="1--Home---CN" transform="translate(-1371.000000, -63.000000)" fill="#D0E3E7">
            <g id="LOGO" transform="translate(1371.000000, 63.000000)">
                <path d="M21.3381561,1.09847176 C22.1036047,2.32920266 22.7443023,3.64116279 22.767392,5.07687708 C22.839485,9.59215947 22.7939701,14.1092691 22.7939701,18.6262126 C21.6542691,19.2506312 20.523206,18.9360133 19.4424751,18.960598 C17.1707143,19.0122591 17.168887,18.9780399 17.4037708,21.2310299 C17.4414784,21.5938206 17.493804,21.9549502 17.5457973,22.369402 C18.7353322,22.748804 19.912907,22.5537874 21.065897,22.5639203 C24.4102492,22.5938206 27.7562625,22.5184053 31.0992857,22.5924917 C32.4891689,22.623378 32.5355326,21.8993032 32.5226666,21.1436637 L32.5186541,20.9373411 C32.5145111,20.6969866 32.5161917,20.4600943 32.5650664,20.2499668 C32.8536047,19.0089369 32.0207143,18.9991362 31.1403156,18.9712292 C27.2366365,18.8472598 27.0905155,18.8325019 27.0829699,15.119296 L27.0825083,14.6742193 L27.0825083,14.6742193 C27.0808472,11.9489701 27.083505,9.22372093 27.0909801,6.49847176 C27.0926412,5.94149502 27.0803488,5.37936877 27.1486213,4.82870432 C27.6893189,0.455780731 29.3587542,-0.625282392 33.3999502,0.924883721 C36.7793522,2.22106312 39.8521096,4.04431894 42.3019435,6.54215947 C42.3353322,7.07322259 42.1117442,7.20295681 41.8838372,7.27936877 C37.174701,8.85710963 35.017392,12.4662458 34.2962957,17.0743854 C33.6330066,21.3132558 33.6830066,25.6077741 34.0685548,29.8645847 C34.668887,36.4933223 36.4170598,38.9154153 42.446794,41.9984718 C41.5280233,43.2542857 40.3911462,44.2062791 39.1301827,45.0534551 C36.6424751,46.7245515 33.9459635,47.8959801 31.074701,48.7478073 C29.814402,49.1215615 29.1036047,48.769402 28.4964618,47.707608 C27.715897,46.3424917 27.107093,44.9376744 27.1029402,43.3375083 C27.0929734,39.3735548 27.123206,35.4092691 27.0725415,31.445814 C27.0584219,30.3433223 27.3854983,29.8883389 28.5448007,29.9107641 C29.8268605,29.935515 31.1326744,30.1027907 32.6137375,29.7109302 C32.5655648,28.8365116 32.5163953,28.1052824 32.4878239,27.3730565 C32.4620764,26.7157475 32.1997841,26.3383389 31.4795183,26.3398339 C26.9069269,26.3486379 22.3341694,26.3441528 17.7095847,26.3441528 C17.3965675,27.2037119 17.3406327,28.0060731 17.3073982,28.796669 L17.2830663,29.3881197 C17.2784996,29.4865638 17.2733721,29.5850015 17.2672259,29.6835216 C19.115897,30.2376744 20.8806811,29.6572757 22.8102492,30.1484718 C22.8102492,33.7650831 22.7627409,37.3993023 22.8268605,41.0315282 C22.8702159,43.4893355 22.7182226,45.859103 21.2443023,47.959103 C20.7962957,48.597309 20.4029402,49.1250498 19.4565947,48.8840199 C14.8506146,47.7104319 10.748289,45.6765449 7.42868771,42.1549502 C8.01107973,41.3474751 8.90443522,41.3687375 9.59064784,41.0016279 C12.9054319,39.2285382 14.746794,36.3496346 15.3898173,32.7906645 C16.3869934,27.2687375 16.4281894,21.6778738 15.393804,16.1642525 C14.558588,11.7112625 12.2436379,8.26790698 7.15725914,7.07488372 C8.74463455,5.1861794 10.4481229,4.01707641 12.2100831,2.92637874 C14.2800166,1.64531561 16.542309,0.821561462 18.8680565,0.12820598 C20.0150664,-0.213820598 20.7391528,0.135348837 21.3381561,1.09847176 Z M6.5870598,10.8855648 C8.74719269,11.3309136 9.94154485,12.8571595 10.8162957,14.7207807 C11.967907,17.173804 12.035706,19.8080681 12.0907899,22.4215844 L12.1101495,23.291711 L12.1101495,23.291711 C12.1910465,26.5043355 12.2385548,29.7466944 11.2849003,32.8731063 C10.5927076,35.141711 9.45466777,37.091711 7.00782392,37.8815781 C6.09686047,38.1757641 5.13789037,38.365299 4.43456811,37.5021761 C3.68988372,36.5883887 4.04719269,35.6332392 4.54802326,34.7307475 C5.2305814,33.5001827 6.3177907,32.444701 7.465299,31.9559967 C9.64303987,31.028588 9.03639535,29.3566611 9.34137874,27.5455316 C5.84702658,28.0442027 3.62194352,30.0237708 1.36131229,32.3518439 C-0.664269103,26.9320764 -0.160614618,21.7508472 1.12975083,16.2694518 C1.5484414,16.6147377 1.95684127,16.9784174 2.36400647,17.3459232 L2.85259167,17.7878343 C4.64614802,19.4080718 6.48593138,20.9895687 9.14337209,21.2913787 C9.37377076,19.3402159 9.35549834,17.7324086 7.2794186,16.732907 C6.01596346,16.1247674 4.96363787,15.0676246 4.32991694,13.7300831 C3.96895349,12.9681229 3.85566445,12.1676246 4.38822259,11.4383887 C4.95001661,10.6689535 5.77260797,10.7176246 6.5870598,10.8855648 Z M45.6401329,13.5480731 C45.0658804,14.9899336 43.8776744,15.9090365 42.6477741,16.7520598 C40.5912957,18.1613621 40.4723588,18.4120266 40.8371429,21.3417608 C43.9379734,20.7284718 46.185814,18.7161794 48.468206,16.7588704 C50.297608,20.2645183 50.3193688,25.1442525 48.5295017,31.7877741 C45.8959468,30.5450831 44.034485,27.8856146 40.8192027,27.6145183 C40.4946179,29.5186711 40.5157143,31.1135216 42.5575748,32.1392691 C43.7590698,32.7429236 44.7868106,33.6984053 45.4599003,34.9349502 C45.8949502,35.7341196 46.1416279,36.5721595 45.5421262,37.3756478 C44.8740199,38.2711628 43.8881395,38.2146844 43.0060797,37.8821262 C41.081495,37.156711 39.6886379,35.809701 38.9587375,33.8645183 C37.5092359,30.000897 37.7175415,25.9606977 37.8195349,21.9513953 C37.8821595,19.4857807 38.0012625,16.9965781 39.0868106,14.6962458 C39.9952824,12.7713289 41.2407973,11.2083721 43.5000997,10.8517276 C45.3859801,10.5540532 46.350598,11.7646844 45.6401329,13.5480731 Z" id="形状结合"></path>
                <text id="YUAN" font-family="Tensentype-JinZhuanHeiJ, Tensentype JinZhuanHeiJ" font-size="16" font-weight="400">
                    <tspan x="2.4921875" y="70">YUAN</tspan>
                </text>
            </g>
        </g>
    </g>
</svg>