<?xml version="1.0" encoding="UTF-8"?>
<svg width="120px" height="40px" viewBox="0 0 120 40" version="1.1" xmlns="http://www.w3.org/2000/svg" xmlns:xlink="http://www.w3.org/1999/xlink">
    <title>logo</title>
    <g id="yuan-(-WEB+H5-)" stroke="none" stroke-width="1" fill="none" fill-rule="evenodd">
        <g id="8---H5---EN---菜单" transform="translate(-32.000000, -40.000000)" fill="#D0E3E7">
            <g id="编组" transform="translate(32.000000, 40.000000)">
                <path d="M17.4099189,0.896185505 C18.0344518,1.90034435 18.5571999,2.97077849 18.5760389,4.14218419 C18.6348599,7.82622329 18.597724,11.5117532 18.597724,15.1971477 C17.6678369,15.7066136 16.7449974,15.4499154 15.8632243,15.4699742 C14.0096845,15.5121247 14.0081936,15.4842051 14.1998363,17.3224297 C14.2306021,17.6184323 14.2732948,17.9130795 14.3157164,18.2512326 C15.2862632,18.5607884 16.2470518,18.4016735 17.1877815,18.4099409 C19.9164534,18.4343367 22.6464806,18.3728051 25.3740682,18.4332525 C26.9719941,18.468762 26.3934066,17.2812279 26.5700052,16.5219759 C26.8054249,15.5094141 26.1258659,15.5014177 25.4075447,15.4786483 C22.1000143,15.3736107 22.098659,15.3646656 22.0967615,11.9726986 C22.0954062,9.74915562 22.0975747,7.52561264 22.1036737,5.30206965 C22.105029,4.84762984 22.0949996,4.38898852 22.1507034,3.93969893 C22.591861,0.37181102 23.9539607,-0.510233217 27.2511906,0.754554247 C30.0084598,1.81211282 32.5155364,3.29971539 34.5143668,5.33771465 C34.5416088,5.77101143 34.3591823,5.87686216 34.173232,5.93920702 C30.3310267,7.22649284 28.5708687,10.1712032 27.9825229,13.9310049 C27.4413424,17.3895182 27.4821377,20.8934349 27.7967081,24.3665857 C28.2865219,29.7750023 29.7128638,31.7511988 34.632551,34.2666784 C33.8829218,35.2913026 32.9553387,36.0680383 31.926513,36.759253 C29.8967812,38.122708 27.6966853,39.0784818 25.3540094,39.7734915 C24.3257258,40.0784391 23.7457831,39.7911107 23.2504125,38.9247882 C22.6135462,37.8109837 22.1168203,36.664787 22.113432,35.3592043 C22.1053001,32.1249969 22.129967,28.8905185 22.0886296,25.6567177 C22.0771094,24.7571898 22.3439725,24.3859668 23.2898524,24.4042637 C24.3358907,24.424458 25.4013102,24.560939 26.6097162,24.2412183 C26.5704118,23.5277763 26.5302943,22.9311631 26.5069827,22.3337367 C26.4859752,21.7974353 26.2719697,21.489506 25.6843016,21.4907257 L21.9518976,21.4948319 L21.9518976,21.4948319 L14.4493513,21.4942496 L14.4493513,21.4942496 C14.0981871,22.4585619 14.1435904,23.3346427 14.0884287,24.2188555 C15.5967678,24.6709913 17.036663,24.1974414 18.6110062,24.5982104 C18.6110062,27.5490197 18.572244,30.5141955 18.6245594,33.4777449 C18.6599334,35.4830808 18.5359213,37.4165847 17.3333432,39.1299841 C16.9678125,39.6506992 16.646872,40.0812853 15.8747445,39.884628 C12.1167048,38.9270922 8.76959899,37.2676347 6.06112142,34.3943498 C6.53629768,33.7355273 7.26519041,33.7528754 7.82507436,33.453349 C10.5296215,32.0066772 12.0319971,29.6577669 12.5566426,26.7539872 C13.3702431,22.2486224 13.4038551,17.6870116 12.5598954,13.1884234 C11.878439,9.5552089 9.98966079,6.74575976 5.83966164,5.77236675 C7.13480834,4.23136445 8.52469212,3.27748809 9.96228327,2.38758298 C11.6511513,1.34235785 13.4969658,0.670253154 15.3945536,0.104541315 C16.3304041,-0.174519699 16.9211894,0.110369205 17.4099189,0.896185505 Z M5.37443345,8.88151847 C7.13689553,9.24488058 8.1113728,10.4901514 8.82508592,12.0106883 C9.86909126,14.2345024 9.82138389,16.6408784 9.88074703,19.0037486 C9.94675127,21.6249434 9.98551351,24.2703984 9.20742255,26.8212519 C8.64265943,28.6722166 7.71412762,30.2632303 5.71773678,30.9076864 C4.97447762,31.1477141 4.19204963,31.3023565 3.61820585,30.5981307 C3.01061453,29.8525674 3.30214452,29.0732567 3.71077441,28.3369097 C4.26767665,27.3328864 5.15473558,26.4717141 6.09099274,26.0729781 C7.86782125,25.3163012 7.37285728,23.9521686 7.62169459,22.4744599 C4.77063703,22.8813278 2.95518182,24.4964663 1.11072269,26.3959516 C-0.541958232,21.9739391 -0.131024285,17.746551 0.921790655,13.274256 C2.90313741,14.9082334 4.60203485,17.0470687 7.46014008,17.3716686 C7.64812339,15.7797062 7.63321483,14.467889 5.93933209,13.6523911 C4.90847339,13.1562073 4.04987624,12.2936798 3.5328205,11.2023736 C3.2383088,10.580687 3.14587577,9.92755679 3.58039234,9.33256998 C4.03876259,8.70478435 4.70991856,8.74449531 5.37443345,8.88151847 Z M37.2380104,11.0538709 C36.7694752,12.2302913 35.8000127,12.9801915 34.7965315,13.668018 C33.1186416,14.8178741 33.0216004,15.0223923 33.3192294,17.4127756 C35.8492109,16.9123903 37.683234,15.270552 39.5454479,13.6735748 C41.0380652,16.5338486 41.0558199,20.5152455 39.5954593,25.9357245 C37.4467302,24.9218073 35.9279552,22.7519352 33.3045919,22.5307464 C33.0397618,24.0843532 33.0569744,25.3855989 34.7229375,26.2225109 C35.7032426,26.7150353 36.541781,27.4946171 37.0909579,28.5035196 C37.445917,29.1555655 37.6471825,29.8393259 37.1580464,30.4948957 C36.6129354,31.2255504 35.8085512,31.1794694 35.0888747,30.9081337 C33.5185974,30.3162641 32.382159,29.2172327 31.7866301,27.6301494 C30.7729259,24.9281386 30.7529778,22.1202799 30.8203709,19.3131752 L30.8448268,18.3776477 C30.8490274,18.2217799 30.8531868,18.0659509 30.8571495,17.9101791 C30.9082452,15.8984731 31.0054219,13.8675215 31.8911255,11.9906702 C32.6323517,10.4201218 33.6485729,9.1448984 35.4919477,8.85391054 C37.030646,8.61103665 37.8176821,9.59879608 37.2380104,11.0538709 Z" id="形状结合"></path>
                <text id="YUAN" font-family="Tensentype-JinZhuanHeiJ, Tensentype JinZhuanHeiJ" font-size="24" font-weight="400">
                    <tspan x="51.6620101" y="29.3305085">YUAN</tspan>
                </text>
            </g>
        </g>
    </g>
</svg>