<?xml version="1.0" encoding="UTF-8"?>
<svg width="839px" height="510px" viewBox="0 0 839 510" version="1.1" xmlns="http://www.w3.org/2000/svg" xmlns:xlink="http://www.w3.org/1999/xlink">
    <title>形状结合</title>
    <g id="页面-1" stroke="none" stroke-width="1" fill="none" fill-rule="evenodd">
        <g id="1--Home---CN" transform="translate(-422.000000, -281.000000)" fill="#8C9C9F">
            <path d="M1261,766.430446 L1250.49403,766.430446 L1250.49403,776.063934 L1253.88162,776.063934 L1253.88162,769.966745 L1260.73773,769.966745 L1260.73773,777.817529 L1255.61965,777.817529 L1255.61965,783.016001 L1260.73773,783.016001 L1260.73773,791 L1253.88162,791 L1253.88162,784.769654 L1248.84018,784.769654 L1248.84018,791 L1241.53566,791 L1241.53566,783.016001 L1247.10216,783.016001 L1247.10216,779.83235 L1238.2673,779.83235 L1238.2673,791 L444.7327,791 L444.7327,779.83235 L435.897845,779.83235 L435.897845,783.016001 L441.46434,783.016001 L441.46434,791 L434.159817,791 L434.159817,784.769654 L429.11838,784.769654 L429.11838,791 L422.262268,791 L422.262268,783.016001 L427.380353,783.016001 L427.380353,777.817529 L422.262268,777.817529 L422.262268,769.966745 L429.11838,769.966745 L429.11838,776.063934 L432.505969,776.063934 L432.505969,766.430446 L422,766.430446 L422,305.569554 L432.505969,305.569554 L432.505969,295.936066 L429.11838,295.936066 L429.11838,302.033255 L422.262268,302.033255 L422.262268,294.182471 L427.380353,294.182471 L427.380353,288.983999 L422.262268,288.983999 L422.262268,281 L429.11838,281 L429.11838,287.230346 L434.159817,287.230346 L434.159817,281 L441.46434,281 L441.46434,288.983999 L435.897845,288.983999 L435.897845,292.16765 L444.7327,292.16765 L444.7327,281 L1238.2673,281 L1238.2673,292.16765 L1247.10216,292.16765 L1247.10216,288.983999 L1241.53566,288.983999 L1241.53566,281 L1248.84018,281 L1248.84018,287.230346 L1253.88162,287.230346 L1253.88162,281 L1260.73773,281 L1260.73773,288.983999 L1255.61965,288.983999 L1255.61965,294.182471 L1260.73773,294.182471 L1260.73773,302.033255 L1253.88162,302.033255 L1253.88162,295.936066 L1250.49403,295.936066 L1250.49403,305.569554 L1261,305.569554 L1261,766.430446 Z M423.737969,764.67691 L434.243996,764.67691 L434.243996,777.817529 L429.11838,777.817529 L429.11838,783.016001 L434.159817,783.016001 L434.159817,778.078756 L446.470785,778.078756 L446.470785,789.246347 L1236.52921,789.246347 L1236.52921,778.078756 L1248.84018,778.078756 L1248.84018,783.016001 L1253.88162,783.016001 L1253.88162,777.817529 L1248.756,777.817529 L1248.756,764.67691 L1259.26203,764.67691 L1259.26203,307.32309 L1248.756,307.32309 L1248.756,294.182471 L1253.88162,294.182471 L1253.88162,288.983999 L1248.84018,288.983999 L1248.84018,293.921244 L1236.52921,293.921244 L1236.52921,282.753653 L446.470785,282.753653 L446.470785,293.921244 L434.159817,293.921244 L434.159817,288.983999 L429.11838,288.983999 L429.11838,294.182471 L434.243996,294.182471 L434.243996,307.32309 L423.737969,307.32309 L423.737969,764.67691 Z M427,785 L424,785 L424,789 L427,789 L427,785 Z M440,785 L436,785 L436,789 L440,789 L440,785 Z M1259,785 L1256,785 L1256,789 L1259,789 L1259,785 Z M1247,785 L1243,785 L1243,789 L1247,789 L1247,785 Z M427,772 L424,772 L424,776 L427,776 L427,772 Z M1259,772 L1256,772 L1256,776 L1259,776 L1259,772 Z M1259,296 L1256,296 L1256,300 L1259,300 L1259,296 Z M427,296 L424,296 L424,300 L427,300 L427,296 Z M1259,283 L1256,283 L1256,287 L1259,287 L1259,283 Z M1247,283 L1243,283 L1243,287 L1247,287 L1247,283 Z M427,283 L424,283 L424,287 L427,287 L427,283 Z M440,283 L436,283 L436,287 L440,287 L440,283 Z" id="形状结合"></path>
        </g>
    </g>
</svg>