<?xml version="1.0" encoding="UTF-8"?>
<svg width="209px" height="39px" viewBox="0 0 209 39" version="1.1" xmlns="http://www.w3.org/2000/svg" xmlns:xlink="http://www.w3.org/1999/xlink">
    <title>mune-top-bg</title>
    <g id="控件" stroke="none" stroke-width="1" fill="none" fill-rule="evenodd">
        <g id="mune-top-bg" transform="translate(10.000000, 0.000000)" fill="#648086">
            <path d="M7.11837993,0 L7.11837993,6.23034588 L12.1598174,6.23034588 L12.1598174,0 L19.46434,0 L19.46434,7.98399882 L13.8978446,7.98399882 L13.8978446,11.1676496 L22.7327001,11.1676496 L22.7327001,0 L40,0 L40,1.75365295 L24.4707852,1.75365295 L24.4707852,12.9212441 L12.1598174,12.9212441 L12.1598174,7.98399882 L7.11837993,7.98399882 L7.11837993,13.1824712 L12.2439958,13.1824712 L12.2439958,26.32309 L1.73796923,26.32309 L1.73796923,39 L0,39 L0,24.569554 L10.5059687,24.569554 L10.5059687,14.9360657 L7.11837993,14.9360657 L7.11837993,21.0332553 L0.262268299,21.0332553 L0.262268299,13.1824712 L5.38035276,13.1824712 L5.38035276,7.98399882 L0.262268299,7.98399882 L0.262268299,0 L7.11837993,0 Z M166.2673,0 L166.2673,11.1676496 L175.102155,11.1676496 L175.102155,7.98399882 L169.53566,7.98399882 L169.53566,0 L176.840183,0 L176.840183,6.23034588 L181.88162,6.23034588 L181.88162,0 L188.737732,0 L188.737732,7.98399882 L183.619647,7.98399882 L183.619647,13.1824712 L188.737732,13.1824712 L188.737732,21.0332553 L181.88162,21.0332553 L181.88162,14.9360657 L178.494031,14.9360657 L178.494031,24.569554 L189,24.569554 L189,39 L187.262031,39 L187.262031,26.32309 L176.756004,26.32309 L176.756004,13.1824712 L181.88162,13.1824712 L181.88162,7.98399882 L176.840183,7.98399882 L176.840183,12.9212441 L164.529215,12.9212441 L164.529215,1.75365295 L149,1.75365295 L149,0 L166.2673,0 Z M5,15 L2,15 L2,19 L5,19 L5,15 Z M187,15 L184,15 L184,19 L187,19 L187,15 Z M18,2 L14,2 L14,6 L18,6 L18,2 Z M5,2 L2,2 L2,6 L5,6 L5,2 Z M175,2 L171,2 L171,6 L175,6 L175,2 Z M187,2 L184,2 L184,6 L187,6 L187,2 Z" id="形状结合"></path>
        </g>
    </g>
</svg>