<?xml version="1.0" encoding="UTF-8"?>
<svg width="692px" height="537px" viewBox="0 0 692 537" version="1.1" xmlns="http://www.w3.org/2000/svg" xmlns:xlink="http://www.w3.org/1999/xlink">
    <title>h5-img-1</title>
    <g id="WEB+H5" stroke="none" stroke-width="1" fill="none" fill-rule="evenodd">
        <g id="1---H5---EN" transform="translate(-29.000000, -330.000000)" fill="#8C9C9F" stroke="#8C9C9F" stroke-width="0.5">
            <g id="Nav---bar">
                <path d="M720,841.430446 L709.494031,841.430446 L709.494031,851.063934 L712.88162,851.063934 L712.88162,844.966745 L719.737732,844.966745 L719.737732,852.817529 L714.619647,852.817529 L714.619647,858.016001 L719.737732,858.016001 L719.737732,866 L712.88162,866 L712.88162,859.769654 L707.840183,859.769654 L707.840183,866 L700.53566,866 L700.53566,858.016001 L706.102155,858.016001 L706.102155,854.83235 L697.2673,854.83235 L697.2673,866 L52.7327001,866 L52.7327001,854.83235 L43.8978446,854.83235 L43.8978446,858.016001 L49.46434,858.016001 L49.46434,866 L42.1598174,866 L42.1598174,859.769654 L37.1183799,859.769654 L37.1183799,866 L30.2622683,866 L30.2622683,858.016001 L35.3803528,858.016001 L35.3803528,852.817529 L30.2622683,852.817529 L30.2622683,844.966745 L37.1183799,844.966745 L37.1183799,851.063934 L40.5059687,851.063934 L40.5059687,841.430446 L30,841.430446 L30,355.569554 L40.5059687,355.569554 L40.5059687,345.936066 L37.1183799,345.936066 L37.1183799,352.033255 L30.2622683,352.033255 L30.2622683,344.182471 L35.3803528,344.182471 L35.3803528,338.983999 L30.2622683,338.983999 L30.2622683,331 L37.1183799,331 L37.1183799,337.230346 L42.1598174,337.230346 L42.1598174,331 L49.46434,331 L49.46434,338.983999 L43.8978446,338.983999 L43.8978446,342.16765 L52.7327001,342.16765 L52.7327001,331 L697.2673,331 L697.2673,342.16765 L706.102155,342.16765 L706.102155,338.983999 L700.53566,338.983999 L700.53566,331 L707.840183,331 L707.840183,337.230346 L712.88162,337.230346 L712.88162,331 L719.737732,331 L719.737732,338.983999 L714.619647,338.983999 L714.619647,344.182471 L719.737732,344.182471 L719.737732,352.033255 L712.88162,352.033255 L712.88162,345.936066 L709.494031,345.936066 L709.494031,355.569554 L720,355.569554 L720,841.430446 Z M31.7379692,839.67691 L42.2439958,839.67691 L42.2439958,852.817529 L37.1183799,852.817529 L37.1183799,858.016001 L42.1598174,858.016001 L42.1598174,853.078756 L54.4707852,853.078756 L54.4707852,864.246347 L695.529215,864.246347 L695.529215,853.078756 L707.840183,853.078756 L707.840183,858.016001 L712.88162,858.016001 L712.88162,852.817529 L707.756004,852.817529 L707.756004,839.67691 L718.262031,839.67691 L718.262031,357.32309 L707.756004,357.32309 L707.756004,344.182471 L712.88162,344.182471 L712.88162,338.983999 L707.840183,338.983999 L707.840183,343.921244 L695.529215,343.921244 L695.529215,332.753653 L54.4707852,332.753653 L54.4707852,343.921244 L42.1598174,343.921244 L42.1598174,338.983999 L37.1183799,338.983999 L37.1183799,344.182471 L42.2439958,344.182471 L42.2439958,357.32309 L31.7379692,357.32309 L31.7379692,839.67691 Z M35,860 L32,860 L32,864 L35,864 L35,860 Z M48,860 L44,860 L44,864 L48,864 L48,860 Z M718,860 L715,860 L715,864 L718,864 L718,860 Z M706,860 L702,860 L702,864 L706,864 L706,860 Z M35,847 L32,847 L32,851 L35,851 L35,847 Z M718,847 L715,847 L715,851 L718,851 L718,847 Z M718,346 L715,346 L715,350 L718,350 L718,346 Z M35,346 L32,346 L32,350 L35,350 L35,346 Z M718,333 L715,333 L715,337 L718,337 L718,333 Z M706,333 L702,333 L702,337 L706,337 L706,333 Z M35,333 L32,333 L32,337 L35,337 L35,333 Z M48,333 L44,333 L44,337 L48,337 L48,333 Z" id="h5-img-1"></path>
            </g>
        </g>
    </g>
</svg>