<?xml version="1.0" encoding="UTF-8"?>
<svg width="692px" height="197px" viewBox="0 0 692 197" version="1.1" xmlns="http://www.w3.org/2000/svg" xmlns:xlink="http://www.w3.org/1999/xlink">
    <title>h5-img-2</title>
    <g id="WEB+H5" stroke="none" stroke-width="1" fill="none" fill-rule="evenodd">
        <g id="1---H5---EN" transform="translate(-29.000000, -895.000000)" fill="#8C9C9F" stroke="#8C9C9F" stroke-width="0.5">
            <g id="Nav---bar">
                <path d="M720,1066.43045 L709.494031,1066.43045 L709.494031,1076.06393 L712.88162,1076.06393 L712.88162,1069.96674 L719.737732,1069.96674 L719.737732,1077.81753 L714.619647,1077.81753 L714.619647,1083.016 L719.737732,1083.016 L719.737732,1091 L712.88162,1091 L712.88162,1084.76965 L707.840183,1084.76965 L707.840183,1091 L700.53566,1091 L700.53566,1083.016 L706.102155,1083.016 L706.102155,1079.83235 L697.2673,1079.83235 L697.2673,1091 L52.7327001,1091 L52.7327001,1079.83235 L43.8978446,1079.83235 L43.8978446,1083.016 L49.46434,1083.016 L49.46434,1091 L42.1598174,1091 L42.1598174,1084.76965 L37.1183799,1084.76965 L37.1183799,1091 L30.2622683,1091 L30.2622683,1083.016 L35.3803528,1083.016 L35.3803528,1077.81753 L30.2622683,1077.81753 L30.2622683,1069.96674 L37.1183799,1069.96674 L37.1183799,1076.06393 L40.5059687,1076.06393 L40.5059687,1066.43045 L30,1066.43045 L30,920.569554 L40.5059687,920.569554 L40.5059687,910.936066 L37.1183799,910.936066 L37.1183799,917.033255 L30.2622683,917.033255 L30.2622683,909.182471 L35.3803528,909.182471 L35.3803528,903.983999 L30.2622683,903.983999 L30.2622683,896 L37.1183799,896 L37.1183799,902.230346 L42.1598174,902.230346 L42.1598174,896 L49.46434,896 L49.46434,903.983999 L43.8978446,903.983999 L43.8978446,907.16765 L52.7327001,907.16765 L52.7327001,896 L697.2673,896 L697.2673,907.16765 L706.102155,907.16765 L706.102155,903.983999 L700.53566,903.983999 L700.53566,896 L707.840183,896 L707.840183,902.230346 L712.88162,902.230346 L712.88162,896 L719.737732,896 L719.737732,903.983999 L714.619647,903.983999 L714.619647,909.182471 L719.737732,909.182471 L719.737732,917.033255 L712.88162,917.033255 L712.88162,910.936066 L709.494031,910.936066 L709.494031,920.569554 L720,920.569554 L720,1066.43045 Z M31.7379692,1064.67691 L42.2439958,1064.67691 L42.2439958,1077.81753 L37.1183799,1077.81753 L37.1183799,1083.016 L42.1598174,1083.016 L42.1598174,1078.07876 L54.4707852,1078.07876 L54.4707852,1089.24635 L695.529215,1089.24635 L695.529215,1078.07876 L707.840183,1078.07876 L707.840183,1083.016 L712.88162,1083.016 L712.88162,1077.81753 L707.756004,1077.81753 L707.756004,1064.67691 L718.262031,1064.67691 L718.262031,922.32309 L707.756004,922.32309 L707.756004,909.182471 L712.88162,909.182471 L712.88162,903.983999 L707.840183,903.983999 L707.840183,908.921244 L695.529215,908.921244 L695.529215,897.753653 L54.4707852,897.753653 L54.4707852,908.921244 L42.1598174,908.921244 L42.1598174,903.983999 L37.1183799,903.983999 L37.1183799,909.182471 L42.2439958,909.182471 L42.2439958,922.32309 L31.7379692,922.32309 L31.7379692,1064.67691 Z M35,1085 L32,1085 L32,1089 L35,1089 L35,1085 Z M48,1085 L44,1085 L44,1089 L48,1089 L48,1085 Z M718,1085 L715,1085 L715,1089 L718,1089 L718,1085 Z M706,1085 L702,1085 L702,1089 L706,1089 L706,1085 Z M35,1072 L32,1072 L32,1076 L35,1076 L35,1072 Z M718,1072 L715,1072 L715,1076 L718,1076 L718,1072 Z M718,911 L715,911 L715,915 L718,915 L718,911 Z M35,911 L32,911 L32,915 L35,915 L35,911 Z M718,898 L715,898 L715,902 L718,902 L718,898 Z M706,898 L702,898 L702,902 L706,902 L706,898 Z M35,898 L32,898 L32,902 L35,902 L35,898 Z M48,898 L44,898 L44,902 L48,902 L48,898 Z" id="h5-img-2"></path>
            </g>
        </g>
    </g>
</svg>