<?xml version="1.0" encoding="UTF-8"?>
<svg width="46px" height="46px" viewBox="0 0 46 46" version="1.1" xmlns="http://www.w3.org/2000/svg" xmlns:xlink="http://www.w3.org/1999/xlink">
    <title>treasury-2</title>
    <g id="yuan-(-WEB+H5-)" stroke="none" stroke-width="1" fill="none" fill-rule="evenodd">
        <g id="1--Home---EN" transform="translate(-752.000000, -282.000000)">
            <g id="编组-13" transform="translate(752.000000, 280.000000)">
                <g id="treasury-2" transform="translate(0.000000, 2.000000)">
                    <circle id="椭圆形" stroke="#8C9C9F" stroke-width="1.5" cx="22.8545619" cy="22.8545619" r="22.1045619"></circle>
                    <path d="M21.4202956,12.523115 C21.757119,13.074779 22.0390478,13.6628533 22.049208,14.3063993 C22.0809314,16.3303339 22.0609033,18.3550876 22.0609033,20.3797669 C21.5593961,20.6596569 21.0616898,20.5186322 20.5861315,20.5296521 C19.5864794,20.5528087 19.5856754,20.5374703 19.6890322,21.5473527 C19.7056249,21.7099704 19.7286499,21.8718435 19.7515287,22.0576178 C20.2749646,22.2276813 20.7931375,22.1402669 21.3004924,22.1448088 C22.7721211,22.1582114 24.2444807,22.1244072 25.7155247,22.1576157 C26.5773189,22.1771239 26.2652748,21.5247173 26.3605181,21.1076 C26.4874847,20.5513196 26.1209846,20.5469265 25.7335793,20.5344175 C24.0648454,20.4804349 23.9565454,20.4726516 23.9486793,18.9462997 L23.948006,18.6083215 C23.947275,17.3867531 23.9484446,16.1651847 23.9517339,14.9436163 C23.9524648,14.6939565 23.9470558,14.4419885 23.9770979,14.1951581 C24.2150233,12.2350345 24.9496316,11.7504577 26.7278953,12.4453057 C28.2149472,13.0263064 29.567065,13.8435644 30.6450752,14.9631989 C30.6597674,15.2012432 30.5613811,15.2593954 30.4610942,15.2936463 C28.3889141,16.0008545 27.4396248,17.6186173 27.1223178,19.6841743 C26.8304481,21.5842098 26.8524498,23.5091889 27.0221041,25.4172659 C27.2862707,28.3885378 28.0555262,29.4742191 30.7088144,30.8561714 C30.304524,31.4190787 29.8042594,31.8458012 29.2493926,32.2255402 C28.1547166,32.9745941 26.9681597,33.4996764 25.7047066,33.8815003 C25.1501322,34.0490322 24.8373571,33.8911799 24.5701936,33.4152403 C24.2267186,32.8033392 23.9588241,32.1736425 23.9569967,31.4563825 C23.952611,29.6795761 23.9659144,27.9026207 23.9436203,26.1260377 C23.9374072,25.6318557 24.0813319,25.4279135 24.5914644,25.4379654 C25.1556143,25.4490597 25.7302169,25.5240396 26.381935,25.3483917 C26.3607374,24.9564414 26.3391011,24.6286745 26.3265287,24.3004608 C26.315199,24.005828 26.1997814,23.836658 25.88284,23.8373281 L23.8698779,23.8395839 L23.8698779,23.8395839 L19.8236008,23.839264 L19.8236008,23.839264 C19.6342107,24.3690372 19.6586977,24.8503378 19.6289478,25.336106 C20.442426,25.5845 21.218991,25.3243415 22.0680666,25.5445157 C22.0680666,27.1656291 22.0471614,28.7946352 22.0753762,30.4227477 C22.0944541,31.5244377 22.0275718,32.5866646 21.3789968,33.5279707 C21.1818586,33.8140407 21.0087688,34.0505958 20.5923446,33.9425564 C18.5655567,33.4165061 16.7603939,32.5048346 15.2996563,30.9263115 C15.5559286,30.564368 15.9490355,30.5738987 16.2509923,30.4093452 C17.7096101,29.6145737 18.5198721,28.324131 18.8028242,26.7288548 C19.2416156,24.2537008 19.2597432,21.7476465 18.8045785,19.2762154 C18.437055,17.2802028 17.4183982,15.7367497 15.1802185,15.2019878 C15.8787177,14.3553931 16.6283106,13.8313532 17.403633,13.3424578 C18.3144741,12.7682328 19.3099597,12.3989924 20.3333678,12.0882021 C20.8380912,11.9348917 21.1567138,12.0914038 21.4202956,12.523115 Z M14.9293114,16.9100912 C15.8798434,17.1097148 16.405399,17.7938408 16.7903191,18.6291922 C17.3533726,19.8509095 17.327643,21.1729226 17.3596588,22.4710345 C17.3952562,23.9110645 17.4161615,25.3644226 16.9965211,26.7658086 C16.6919327,27.7826902 16.1911565,28.6567601 15.114462,29.0108109 C14.7136071,29.1426772 14.2916276,29.2276345 13.9821419,28.8407474 C13.6544554,28.4311504 13.8116835,28.0030133 14.032066,27.5984795 C14.3324148,27.0468899 14.8108239,26.5737798 15.3157666,26.3547225 C16.2740466,25.9390199 16.0071024,25.1895937 16.1413055,24.3777712 C14.6036716,24.601296 13.6245594,25.4886196 12.6298048,26.5321574 C11.73848,24.1027955 11.9601051,21.7803561 12.5279098,19.3233701 C12.7164829,19.481783 12.9003122,19.6488334 13.0836705,19.8175195 L13.4510253,20.154998 C14.1895432,20.8260185 14.9661042,21.4485247 16.0541758,21.5744036 C16.1555591,20.6998124 16.1475186,19.9791273 15.2339729,19.5311097 C14.6780096,19.2585166 14.2149506,18.7846618 13.9360918,18.1851209 C13.7772556,17.8435791 13.7274046,17.484763 13.9617483,17.1578896 C14.2089567,16.8129972 14.5709249,16.8348135 14.9293114,16.9100912 Z M32.1139921,18.1035366 C31.8613015,18.7498375 31.3384504,19.1618172 30.7972524,19.5396947 C29.892332,20.1714018 29.8399957,20.2837599 30.0005131,21.5969869 C31.364984,21.3220856 32.3541103,20.4200937 33.3584405,19.5427476 C34.1634396,21.1141226 34.1730151,23.3014195 33.3854127,26.2793182 C32.226559,25.7222931 31.4074524,24.5302104 29.9926188,24.4086939 C29.8497905,25.2622132 29.8590736,25.9770906 30.7575617,26.4368727 C31.2862603,26.7074554 31.7385013,27.1357414 32.0346837,27.6900115 C32.2261204,28.048232 32.334667,28.4238758 32.0708659,28.7840323 C31.7768763,29.1854388 31.3430554,29.1601228 30.9549191,29.0110566 C30.1080364,28.6858958 29.4951318,28.0821107 29.1739509,27.2102001 C28.5361208,25.4783666 28.6277824,23.6673837 28.6726629,21.8702501 C28.7002199,20.7650605 28.7526293,19.6492979 29.2303074,18.6181947 C29.6300659,17.755368 30.1781348,17.0547867 31.1723047,16.894924 C32.0021562,16.7614941 32.4266209,17.3041487 32.1139921,18.1035366 Z" id="形状结合" fill="#476065"></path>
                </g>
            </g>
        </g>
    </g>
</svg>