<?xml version="1.0" encoding="UTF-8"?>
<svg width="46px" height="46px" viewBox="0 0 46 46" version="1.1" xmlns="http://www.w3.org/2000/svg" xmlns:xlink="http://www.w3.org/1999/xlink">
    <title>treasury-3</title>
    <g id="yuan-(-WEB+H5-)" stroke="none" stroke-width="1" fill="none" fill-rule="evenodd">
        <g id="1--Home---EN" transform="translate(-1062.000000, -283.000000)">
            <g id="编组-14" transform="translate(1062.000000, 278.000000)">
                <g id="treasury-3" transform="translate(0.000000, 5.000000)">
                    <circle id="椭圆形" stroke="#8C9C9F" stroke-width="1.5" cx="22.8545619" cy="22.8545619" r="22.1045619"></circle>
                    <path d="M23,12 C16.9242111,12 12,16.9242111 12,23 C12,29.0757889 16.9242111,34 23,34 C29.0736378,34 34,29.0757889 34,23 C34,16.9242111 29.0736378,12 23,12 Z M28.2764152,21.6795487 L28.2764152,22.9988716 L24.3190975,22.9988716 L24.3190975,25.6397743 L28.2786462,25.6397743 L28.2786462,26.9590973 L24.3190975,26.9590973 L24.3190975,29.6 L21.6786462,29.6 L21.6786462,26.9590973 L17.7190975,26.9590973 L17.7190975,25.6397743 L21.6808772,25.6397743 L21.6808772,22.9988716 L17.7190975,22.9988716 L17.7190975,21.6795487 L21.8034295,21.6951429 L16.4,16.4 L19.0404513,16.4 L23,20.3602257 L26.9595487,16.4 L29.6,16.4 L24.6533655,21.6951429 L28.2764659,21.6795487 L28.2764152,21.6795487 Z" id="形状" fill="#476065" fill-rule="nonzero"></path>
                </g>
            </g>
        </g>
    </g>
</svg>