<?xml version="1.0" encoding="UTF-8"?>
<svg width="839px" height="214px" viewBox="0 0 839 214" version="1.1" xmlns="http://www.w3.org/2000/svg" xmlns:xlink="http://www.w3.org/1999/xlink">
    <title>top-border</title>
    <g id="yuan-(-WEB+H5-)" stroke="none" stroke-width="1" fill="none" fill-rule="evenodd">
        <g id="1--Home---EN" transform="translate(-423.000000, -213.000000)" fill="#8C9C9F">
            <path d="M1262,402.430446 L1251.49403,402.430446 L1251.49403,412.063934 L1254.88162,412.063934 L1254.88162,405.966745 L1261.73773,405.966745 L1261.73773,413.817529 L1256.61965,413.817529 L1256.61965,419.016001 L1261.73773,419.016001 L1261.73773,427 L1254.88162,427 L1254.88162,420.769654 L1249.84018,420.769654 L1249.84018,427 L1242.53566,427 L1242.53566,419.016001 L1248.10216,419.016001 L1248.10216,415.83235 L1239.2673,415.83235 L1239.2673,427 L445.7327,427 L445.7327,415.83235 L436.897845,415.83235 L436.897845,419.016001 L442.46434,419.016001 L442.46434,427 L435.159817,427 L435.159817,420.769654 L430.11838,420.769654 L430.11838,427 L423.262268,427 L423.262268,419.016001 L428.380353,419.016001 L428.380353,413.817529 L423.262268,413.817529 L423.262268,405.966745 L430.11838,405.966745 L430.11838,412.063934 L433.505969,412.063934 L433.505969,402.430446 L423,402.430446 L423,237.569554 L433.505969,237.569554 L433.505969,227.936066 L430.11838,227.936066 L430.11838,234.033255 L423.262268,234.033255 L423.262268,226.182471 L428.380353,226.182471 L428.380353,220.983999 L423.262268,220.983999 L423.262268,213 L430.11838,213 L430.11838,219.230346 L435.159817,219.230346 L435.159817,213 L442.46434,213 L442.46434,220.983999 L436.897845,220.983999 L436.897845,224.16765 L445.7327,224.16765 L445.7327,213 L1239.2673,213 L1239.2673,224.16765 L1248.10216,224.16765 L1248.10216,220.983999 L1242.53566,220.983999 L1242.53566,213 L1249.84018,213 L1249.84018,219.230346 L1254.88162,219.230346 L1254.88162,213 L1261.73773,213 L1261.73773,220.983999 L1256.61965,220.983999 L1256.61965,226.182471 L1261.73773,226.182471 L1261.73773,234.033255 L1254.88162,234.033255 L1254.88162,227.936066 L1251.49403,227.936066 L1251.49403,237.569554 L1262,237.569554 L1262,402.430446 Z M424.737969,400.67691 L435.243996,400.67691 L435.243996,413.817529 L430.11838,413.817529 L430.11838,419.016001 L435.159817,419.016001 L435.159817,414.078756 L447.470785,414.078756 L447.470785,425.246347 L1237.52921,425.246347 L1237.52921,414.078756 L1249.84018,414.078756 L1249.84018,419.016001 L1254.88162,419.016001 L1254.88162,413.817529 L1249.756,413.817529 L1249.756,400.67691 L1260.26203,400.67691 L1260.26203,239.32309 L1249.756,239.32309 L1249.756,226.182471 L1254.88162,226.182471 L1254.88162,220.983999 L1249.84018,220.983999 L1249.84018,225.921244 L1237.52921,225.921244 L1237.52921,214.753653 L447.470785,214.753653 L447.470785,225.921244 L435.159817,225.921244 L435.159817,220.983999 L430.11838,220.983999 L430.11838,226.182471 L435.243996,226.182471 L435.243996,239.32309 L424.737969,239.32309 L424.737969,400.67691 Z M428,421 L425,421 L425,425 L428,425 L428,421 Z M441,421 L437,421 L437,425 L441,425 L441,421 Z M1260,421 L1257,421 L1257,425 L1260,425 L1260,421 Z M1248,421 L1244,421 L1244,425 L1248,425 L1248,421 Z M428,408 L425,408 L425,412 L428,412 L428,408 Z M1260,408 L1257,408 L1257,412 L1260,412 L1260,408 Z M1260,228 L1257,228 L1257,232 L1260,232 L1260,228 Z M428,228 L425,228 L425,232 L428,232 L428,228 Z M1260,215 L1257,215 L1257,219 L1260,219 L1260,215 Z M1248,215 L1244,215 L1244,219 L1248,219 L1248,215 Z M428,215 L425,215 L425,219 L428,219 L428,215 Z M441,215 L437,215 L437,219 L441,219 L441,215 Z" id="top-border"></path>
        </g>
    </g>
</svg>