<?xml version="1.0" encoding="UTF-8"?>
<svg width="694px" height="647px" viewBox="0 0 694 647" version="1.1" xmlns="http://www.w3.org/2000/svg" xmlns:xlink="http://www.w3.org/1999/xlink">
    <title>h5-img-1</title>
    <g id="yuan-(-WEB+H5-)" stroke="none" stroke-width="1" fill="none" fill-rule="evenodd">
        <g id="1---H5---EN" transform="translate(-29.000000, -270.000000)" fill="#8C9C9F" stroke="#8C9C9F" stroke-width="0.5">
            <path d="M722,891.430446 L711.494031,891.430446 L711.494031,901.063934 L714.88162,901.063934 L714.88162,894.966745 L721.737732,894.966745 L721.737732,902.817529 L716.619647,902.817529 L716.619647,908.016001 L721.737732,908.016001 L721.737732,916 L714.88162,916 L714.88162,909.769654 L709.840183,909.769654 L709.840183,916 L702.53566,916 L702.53566,908.016001 L708.102155,908.016001 L708.102155,904.83235 L699.2673,904.83235 L699.2673,916 L52.7327001,916 L52.7327001,904.83235 L43.8978446,904.83235 L43.8978446,908.016001 L49.46434,908.016001 L49.46434,916 L42.1598174,916 L42.1598174,909.769654 L37.1183799,909.769654 L37.1183799,916 L30.2622683,916 L30.2622683,908.016001 L35.3803528,908.016001 L35.3803528,902.817529 L30.2622683,902.817529 L30.2622683,894.966745 L37.1183799,894.966745 L37.1183799,901.063934 L40.5059687,901.063934 L40.5059687,891.430446 L30,891.430446 L30,295.569554 L40.5059687,295.569554 L40.5059687,285.936066 L37.1183799,285.936066 L37.1183799,292.033255 L30.2622683,292.033255 L30.2622683,284.182471 L35.3803528,284.182471 L35.3803528,278.983999 L30.2622683,278.983999 L30.2622683,271 L37.1183799,271 L37.1183799,277.230346 L42.1598174,277.230346 L42.1598174,271 L49.46434,271 L49.46434,278.983999 L43.8978446,278.983999 L43.8978446,282.16765 L52.7327001,282.16765 L52.7327001,271 L699.2673,271 L699.2673,282.16765 L708.102155,282.16765 L708.102155,278.983999 L702.53566,278.983999 L702.53566,271 L709.840183,271 L709.840183,277.230346 L714.88162,277.230346 L714.88162,271 L721.737732,271 L721.737732,278.983999 L716.619647,278.983999 L716.619647,284.182471 L721.737732,284.182471 L721.737732,292.033255 L714.88162,292.033255 L714.88162,285.936066 L711.494031,285.936066 L711.494031,295.569554 L722,295.569554 L722,891.430446 Z M31.7379692,889.67691 L42.2439958,889.67691 L42.2439958,902.817529 L37.1183799,902.817529 L37.1183799,908.016001 L42.1598174,908.016001 L42.1598174,903.078756 L54.4707852,903.078756 L54.4707852,914.246347 L697.529215,914.246347 L697.529215,903.078756 L709.840183,903.078756 L709.840183,908.016001 L714.88162,908.016001 L714.88162,902.817529 L709.756004,902.817529 L709.756004,889.67691 L720.262031,889.67691 L720.262031,297.32309 L709.756004,297.32309 L709.756004,284.182471 L714.88162,284.182471 L714.88162,278.983999 L709.840183,278.983999 L709.840183,283.921244 L697.529215,283.921244 L697.529215,272.753653 L54.4707852,272.753653 L54.4707852,283.921244 L42.1598174,283.921244 L42.1598174,278.983999 L37.1183799,278.983999 L37.1183799,284.182471 L42.2439958,284.182471 L42.2439958,297.32309 L31.7379692,297.32309 L31.7379692,889.67691 Z M35,910 L32,910 L32,914 L35,914 L35,910 Z M48,910 L44,910 L44,914 L48,914 L48,910 Z M720,910 L717,910 L717,914 L720,914 L720,910 Z M708,910 L704,910 L704,914 L708,914 L708,910 Z M35,897 L32,897 L32,901 L35,901 L35,897 Z M720,897 L717,897 L717,901 L720,901 L720,897 Z M720,286 L717,286 L717,290 L720,290 L720,286 Z M35,286 L32,286 L32,290 L35,290 L35,286 Z M720,273 L717,273 L717,277 L720,277 L720,273 Z M708,273 L704,273 L704,277 L708,277 L708,273 Z M35,273 L32,273 L32,277 L35,277 L35,273 Z M48,273 L44,273 L44,277 L48,277 L48,273 Z" id="h5-img-1"></path>
        </g>
    </g>
</svg>