<?xml version="1.0" encoding="UTF-8"?>
<svg width="130px" height="70px" viewBox="0 0 130 70" version="1.1" xmlns="http://www.w3.org/2000/svg" xmlns:xlink="http://www.w3.org/1999/xlink">
    <title>YUAN-USDx</title>
    <g id="yuan-(-WEB+H5-)" stroke="none" stroke-width="1" fill="none" fill-rule="evenodd">
        <g id="3---选择朝代" transform="translate(-775.000000, -227.000000)">
            <g id="编组-12" transform="translate(420.000000, 171.000000)">
                <g id="编组-10备份" transform="translate(285.000000, 0.000000)">
                    <g id="编组-2" transform="translate(70.000000, 56.000000)">
                        <circle id="椭圆形" stroke-opacity="0.257293488" stroke="#8C9C9F" fill="#E7EAE8" cx="35" cy="35" r="34.5"></circle>
                        <circle id="椭圆形" stroke-opacity="0.257293488" stroke="#8C9C9F" fill="#E7EAE8" cx="95" cy="35" r="34.5"></circle>
                        <path d="M31.8128415,15.8763116 C32.4119131,16.8582021 32.9133495,17.9048982 32.9314205,19.0503267 C32.9878435,22.6526681 32.9522216,26.2564673 32.9522216,29.860134 C32.4033126,30.1666989 31.8569638,30.1895531 31.3207797,30.1663544 L30.9206664,30.1440338 C30.7216816,30.1322694 30.5243935,30.122384 30.3292031,30.1269103 C28.5512293,30.1681261 28.5497992,30.1408256 28.7336289,31.9382856 C28.7631405,32.227724 28.8040927,32.5158371 28.8447848,32.8464913 C29.7757639,33.1491823 30.6973826,32.9935959 31.5997602,33.0016801 C34.2171883,33.0255349 36.8359165,32.9653677 39.4523046,33.0244746 C40.9850855,33.0591967 40.4300862,31.8979975 40.5994852,31.1555828 C40.8253071,30.1654756 40.1734527,30.1576565 39.4844163,30.135392 C36.3117289,30.0326838 36.3104288,30.0239371 36.3086087,26.7071907 C36.3073086,24.5329573 36.3093888,22.3587238 36.3152391,20.1844904 C36.3165391,19.7401283 36.3069186,19.2916578 36.3603514,18.8523317 C36.7835238,15.3635657 38.0900927,14.5010818 41.2528997,15.7378212 C43.8977592,16.7719272 46.3026262,18.2265405 48.2199674,20.2193449 C48.2460987,20.6430328 48.0711095,20.7465362 47.8927401,20.8074985 C44.2071756,22.0662373 42.5187765,24.9456455 41.9544167,28.6220694 C41.4352993,32.0038863 41.4744313,35.4300998 41.7761773,38.8262296 C42.2460221,44.1147086 43.6142143,46.0470808 48.3333333,48.5067768 C47.6142654,49.5086788 46.7244984,50.2681895 45.7376163,50.9440758 C43.7906336,52.2772946 41.6802322,53.2118731 39.4330636,53.8914701 C38.4467016,54.1896553 37.8904022,53.9086986 37.4152271,53.0615878 C36.8043249,51.9724832 36.3278497,50.8517046 36.3245996,49.5750747 C36.3167992,46.4125895 36.3404604,43.2498392 36.3008083,40.0877515 C36.2897577,39.2081716 36.5457412,38.8451809 37.4530591,38.863072 C38.4564521,38.8828185 39.478436,39.0162729 40.6375772,38.7036424 C40.5998752,38.0060217 40.5613932,37.4226391 40.539032,36.8384613 C40.5188809,36.314053 40.3136001,36.0129523 39.7498903,36.014145 C36.1711915,36.021169 32.5923626,36.0175907 28.9729716,36.0175907 C28.6361238,36.9605184 28.6796761,37.8171711 28.6267633,38.6817755 C30.0736097,39.1238846 31.4548026,38.6608363 32.9649623,39.0527178 C32.9649623,41.9380896 32.9277803,44.8375093 32.9779629,47.7353387 C33.0118947,49.6962041 32.8929385,51.5868304 31.7393876,53.2622332 C31.3887591,53.7714009 31.0809028,54.1924383 30.3402537,54.000142 C26.7354235,53.0638407 23.524774,51.4411835 20.9267169,48.6316169 C21.382521,47.9874045 22.0816979,48.004368 22.6187562,47.7114839 C25.2130431,46.2968936 26.6541692,44.000073 27.1574258,41.1606879 C27.9378569,36.7552345 27.9700986,32.2947825 27.1605459,27.8959554 C26.5068714,24.3433115 24.6950958,21.596165 20.7142857,20.6443581 C21.9566313,19.1375292 23.2898516,18.2048062 24.6688344,17.3346357 C26.2888499,16.3125896 28.0594134,15.6553895 29.8796394,15.102223 C30.7773368,14.8293505 31.3440367,15.1079216 31.8128415,15.8763116 Z M20.6798673,22.7011897 C22.5424917,23.0579263 23.5723494,24.2804908 24.3266235,25.7733022 C25.4299606,27.9565672 25.379542,30.3190654 25.4422788,32.638851 C25.5120341,35.2122508 25.5529992,37.8094686 24.7306887,40.3138098 C24.1338296,42.131024 23.1525284,43.6930272 21.0426809,44.3257322 C20.2571817,44.5613833 19.4302876,44.7132059 18.8238317,44.0218209 C18.1817105,43.2898523 18.4898084,42.5247515 18.9216611,41.8018311 C19.5102126,40.8161151 20.4476839,39.9706455 21.4371493,39.57918 C23.3149566,38.8363004 22.7918634,37.4970414 23.0548424,36.0462772 C20.0417566,36.4457264 18.1231275,38.0314144 16.1738461,39.8962644 C14.4272418,35.5548829 14.8615295,31.4045771 15.9741768,27.01383 C16.2963228,27.2606274 16.6114036,27.5191563 16.9249671,27.781126 L17.3948681,28.1756248 L17.3948681,28.1756248 L17.866654,28.5690669 C19.2890005,29.7415901 20.7929677,30.815905 22.8841066,31.0365303 C23.0827731,29.4735958 23.0670173,28.1856983 21.2768697,27.3850702 C20.1874264,26.8979338 19.2800344,26.0511336 18.7335939,24.9797264 C18.4223448,24.3693755 18.3246587,23.7281545 18.7838693,23.1440167 C19.2682891,22.5276781 19.9775875,22.566665 20.6798673,22.7011897 Z M51.3525918,24.818734 C50.8558008,25.9756974 49.8278731,26.7131949 48.7638753,27.3896452 C46.9847973,28.5204836 46.8819039,28.7216193 47.1974819,31.0724675 C49.8800383,30.5803582 51.8246654,28.9656745 53.7991833,27.3951101 C55.3818155,30.2080772 55.4006409,34.1236251 53.8522108,39.4544536 C51.5738988,38.4573058 49.9635314,36.3233216 47.1819617,36.1057912 C46.9011605,37.6337026 46.9194111,38.9134266 48.685843,39.7364968 C49.7252672,40.2208752 50.6143751,40.9875633 51.196671,41.9797794 C51.5730365,42.621041 51.7864397,43.2934926 51.2678054,43.9382197 C50.6898206,44.6567899 49.8369266,44.6114711 49.0738487,44.3446231 C47.4088731,43.7625426 46.2038999,42.6816882 45.5724565,41.1208541 C44.3184796,38.0206455 44.4986867,34.7787489 44.5869221,31.5616444 C44.6410991,29.5832104 44.7441362,27.5858491 45.6832537,25.7400394 C46.4691808,24.1954667 47.546687,22.9413344 49.5012298,22.6551593 C51.1327219,22.4163023 51.9672216,23.387725 51.3525918,24.818734 Z" id="形状结合" fill="#476065"></path>
                        <path d="M97.6372197,17 C106.674059,17 114,25.2828164 114,35.5 C114,45.7173593 106.674059,54 97.6372197,54 L97.6372197,54 L96.5102953,54 L96.5102953,45.0340937 C96.600269,45.0328639 96.6888442,45.0321611 96.7806826,45.0302285 C102.228209,44.9170829 103.180159,40.5929552 102.820885,37.5895031 C102.464409,34.6076611 101.770105,34.1224002 100.657321,33.5123981 C99.5445377,32.9025717 96.1922018,32.0091787 95.6086937,31.8816264 C95.0251855,31.7538985 94.4876743,30.8814128 95.8792363,30.8622623 C97.7017086,30.8371384 102.099853,30.5672757 102.099853,30.5672757 L102.099853,30.5672757 L102.189982,25.5445972 C100.799974,25.3622291 98.6566108,25.528785 96.5102953,25.4718608 L96.5102953,25.4718608 L96.5102953,17 Z M92.8237495,17 L92.8237495,25.4899571 C89.7634134,25.6426333 87.0424478,26.6983656 86.556114,29.4071825 C85.6120845,34.6640582 87.3399757,36.2753281 88.8442494,37.0799968 C90.3483516,37.8844897 94.8134996,38.7107685 94.8134996,38.7107685 C94.8134996,38.7107685 95.5080172,39.3465973 94.2165574,39.52633 C93.4963504,39.6502228 92.186792,39.6913052 90.8575443,39.6953421 L90.3592661,39.6952088 C88.4541918,39.6887265 86.6555757,39.6175141 86.6555757,39.6175141 L86.6555757,39.6175141 L86.4564807,44.7138075 C86.4564807,44.7138075 88.3843244,44.8821203 92.8237495,45.0195113 L92.8237495,45.0195113 L92.8237495,54 L81.4297166,54 C79.5356556,54 78,52.4268552 78,50.4861631 L78,50.4861631 L78,20.5138369 C78,18.5733205 79.5356556,17 81.4297166,17 L81.4297166,17 L92.8237495,17 Z" id="形状结合" fill="#100E28"></path>
                    </g>
                </g>
            </g>
        </g>
    </g>
</svg>