<?xml version="1.0" encoding="UTF-8"?>
<svg width="8px" height="9px" viewBox="0 0 8 9" version="1.1" xmlns="http://www.w3.org/2000/svg" xmlns:xlink="http://www.w3.org/1999/xlink">
    <title>arrive</title>
    <g id="控件" stroke="none" stroke-width="1" fill="none" fill-rule="evenodd">
        <g id="Deposit--YUAN-USDx" transform="translate(-218.000000, -12.000000)" fill="#FFFFFF" fill-rule="nonzero">
            <g id="编组-15" transform="translate(7.000000, 6.000000)">
                <g id="编组-14" transform="translate(173.000000, 0.000000)">
                    <g id="编组-16" transform="translate(5.000000, 2.000000)">
                        <path d="M41,6.46168884 L41,12.2606431 C41,12.6688913 40.6485673,13 40.2149679,13 C39.7814994,13 39.4299359,12.6688913 39.4299359,12.2606431 L39.4299359,7.20104575 L35.8318723,7.20104575 C35.8155175,7.20104575 35.799686,7.19956704 35.7835928,7.19870445 L36.3734136,8.60483807 C36.3946094,8.65499112 36.3774696,8.7124145 36.3318069,8.74494621 C36.2861442,8.77747791 36.2226874,8.77723146 36.1771556,8.74420685 L33.0498495,6.47980308 C33.0184483,6.45675979 33,6.42188679 33,6.38454927 C33,6.34721174 33.0184483,6.31196906 33.0498495,6.28941868 L36.1771556,4.02476846 C36.2001832,4.00813293 36.2272668,4 36.2548737,4 C36.2819573,4 36.3087793,4.00788647 36.3318069,4.0240291 C36.3776004,4.0565608 36.3946094,4.11386096 36.3734136,4.16438369 L35.7444721,5.66355305 L35.7444721,5.72713775 C35.7733874,5.72418032 35.8021719,5.72233193 35.8318723,5.72233193 L40.2149679,5.72233193 C40.6486982,5.72233193 41,6.05331737 41,6.46168884 Z" id="arrive" transform="translate(37.000000, 8.500000) scale(-1, 1) translate(-37.000000, -8.500000) "></path>
                    </g>
                </g>
            </g>
        </g>
    </g>
</svg>