<?xml version="1.0" encoding="UTF-8"?>
<svg width="16px" height="16px" viewBox="0 0 16 16" version="1.1" xmlns="http://www.w3.org/2000/svg" xmlns:xlink="http://www.w3.org/1999/xlink">
    <title>img-process-1</title>
    <g id="控件" stroke="none" stroke-width="1" fill="none" fill-rule="evenodd">
        <g id="Approve" transform="translate(-7.000000, -8.000000)">
            <g id="编组-15" transform="translate(7.000000, 6.000000)">
                <g id="img-process-1" transform="translate(0.000000, 2.000000)">
                    <circle id="形状结合" fill="#476065" cx="8" cy="8" r="8"></circle>
                    <path d="M8.49999917,11.9999817 L8.99999917,9.99998619 L10.2224931,9.99998619 C10.7029898,9.47048514 10.9999992,8.77248669 10.9999992,7.99999063 C10.9999992,6.63498922 10.0859956,5.44749852 8.83799842,5.07799712 C8.63399887,5.01799726 8.49999917,4.82299325 8.49999917,4.60999816 L8.49999917,4.60999816 C8.49999917,4.28649666 8.80849626,4.03750166 9.11900224,4.12849701 C10.7829985,4.61849592 11.9999992,6.1794969 11.9999992,7.99999063 C11.9999992,10.0184839 10.4429993,11.7264801 8.49999917,11.9999817 L8.49999917,11.9999817 Z M4.00000028,7.99999952 C4.00000028,5.98199511 5.55701015,4.27350113 7.50000028,3.99999952 L7.00000028,5.99999952 L5.77750744,5.99999952 C5.29701073,6.52949612 5.00000028,7.22749457 5.00000028,7.99999952 C5.00000028,9.36499204 5.91400491,10.5524827 7.16200214,10.9214864 C7.36600169,10.981984 7.50000028,11.176988 7.50000028,11.3899831 L7.50000028,11.3899831 C7.50000028,11.7134846 7.1915043,11.9624796 6.88099832,11.8714842 C5.21700202,11.3814853 4.00000028,9.82048436 4.00000028,7.99999952 L4.00000028,7.99999952 Z" id="形状" stroke="#FFFFFF" stroke-width="0.2" fill="#FFFFFF" fill-rule="nonzero" transform="translate(8.000000, 7.999991) rotate(-300.000000) translate(-8.000000, -7.999991) "></path>
                </g>
            </g>
        </g>
    </g>
</svg>